<?xml version="1.0" standalone="no"?><!DOCTYPE svg PUBLIC "-//W3C//DTD SVG 1.1//EN" "http://www.w3.org/Graphics/SVG/1.1/DTD/svg11.dtd"><svg xmlns:xlink="http://www.w3.org/1999/xlink" version="1.1" class="highcharts-root" style="font-family: Helvetica, Arial, sans-serif; font-size: 1rem;" xmlns="http://www.w3.org/2000/svg" width="600" height="450" viewBox="0 0 600 450" role="img" aria-label="Kenya Yield Curve - 3 Nov 2023"><desc>Created with Highcharts 11.2.0</desc><defs><filter id="highcharts-drop-shadow-2"><feDropShadow dx="1" dy="1" flood-color="#000000" flood-opacity="0.75" stdDeviation="2.5"></feDropShadow></filter><clipPath id="highcharts-9ygbx35-73-"><rect x="0" y="0" width="540" height="270" fill="none"></rect></clipPath><clipPath id="highcharts-9ygbx35-89-"><rect x="0" y="0" width="540" height="270" fill="none"></rect></clipPath></defs><rect fill="#ffffff" class="highcharts-background" filter="none" x="0" y="0" width="600" height="450" rx="0" ry="0"></rect><rect fill="none" class="highcharts-plot-background" x="50" y="61" width="540" height="270" filter="none"></rect><g class="highcharts-grid highcharts-xaxis-grid" data-z-index="1"><path fill="none" stroke="#e6e6e6" stroke-width="0" stroke-dasharray="none" data-z-index="1" class="highcharts-grid-line" d="M 70.5 61 L 70.5 331" opacity="1"></path><path fill="none" stroke="#e6e6e6" stroke-width="0" stroke-dasharray="none" data-z-index="1" class="highcharts-grid-line" d="M 92.5 61 L 92.5 331" opacity="1"></path><path fill="none" stroke="#e6e6e6" stroke-width="0" stroke-dasharray="none" data-z-index="1" class="highcharts-grid-line" d="M 113.5 61 L 113.5 331" opacity="1"></path><path fill="none" stroke="#e6e6e6" stroke-width="0" stroke-dasharray="none" data-z-index="1" class="highcharts-grid-line" d="M 135.5 61 L 135.5 331" opacity="1"></path><path fill="none" stroke="#e6e6e6" stroke-width="0" stroke-dasharray="none" data-z-index="1" class="highcharts-grid-line" d="M 156.5 61 L 156.5 331" opacity="1"></path><path fill="none" stroke="#e6e6e6" stroke-width="0" stroke-dasharray="none" data-z-index="1" class="highcharts-grid-line" d="M 177.5 61 L 177.5 331" opacity="1"></path><path fill="none" stroke="#e6e6e6" stroke-width="0" stroke-dasharray="none" data-z-index="1" class="highcharts-grid-line" d="M 199.5 61 L 199.5 331" opacity="1"></path><path fill="none" stroke="#e6e6e6" stroke-width="0" stroke-dasharray="none" data-z-index="1" class="highcharts-grid-line" d="M 220.5 61 L 220.5 331" opacity="1"></path><path fill="none" stroke="#e6e6e6" stroke-width="0" stroke-dasharray="none" data-z-index="1" class="highcharts-grid-line" d="M 241.5 61 L 241.5 331" opacity="1"></path><path fill="none" stroke="#e6e6e6" stroke-width="0" stroke-dasharray="none" data-z-index="1" class="highcharts-grid-line" d="M 263.5 61 L 263.5 331" opacity="1"></path><path fill="none" stroke="#e6e6e6" stroke-width="0" stroke-dasharray="none" data-z-index="1" class="highcharts-grid-line" d="M 284.5 61 L 284.5 331" opacity="1"></path><path fill="none" stroke="#e6e6e6" stroke-width="0" stroke-dasharray="none" data-z-index="1" class="highcharts-grid-line" d="M 306.5 61 L 306.5 331" opacity="1"></path><path fill="none" stroke="#e6e6e6" stroke-width="0" stroke-dasharray="none" data-z-index="1" class="highcharts-grid-line" d="M 327.5 61 L 327.5 331" opacity="1"></path><path fill="none" stroke="#e6e6e6" stroke-width="0" stroke-dasharray="none" data-z-index="1" class="highcharts-grid-line" d="M 348.5 61 L 348.5 331" opacity="1"></path><path fill="none" stroke="#e6e6e6" stroke-width="0" stroke-dasharray="none" data-z-index="1" class="highcharts-grid-line" d="M 370.5 61 L 370.5 331" opacity="1"></path><path fill="none" stroke="#e6e6e6" stroke-width="0" stroke-dasharray="none" data-z-index="1" class="highcharts-grid-line" d="M 391.5 61 L 391.5 331" opacity="1"></path><path fill="none" stroke="#e6e6e6" stroke-width="0" stroke-dasharray="none" data-z-index="1" class="highcharts-grid-line" d="M 413.5 61 L 413.5 331" opacity="1"></path><path fill="none" stroke="#e6e6e6" stroke-width="0" stroke-dasharray="none" data-z-index="1" class="highcharts-grid-line" d="M 434.5 61 L 434.5 331" opacity="1"></path><path fill="none" stroke="#e6e6e6" stroke-width="0" stroke-dasharray="none" data-z-index="1" class="highcharts-grid-line" d="M 455.5 61 L 455.5 331" opacity="1"></path><path fill="none" stroke="#e6e6e6" stroke-width="0" stroke-dasharray="none" data-z-index="1" class="highcharts-grid-line" d="M 477.5 61 L 477.5 331" opacity="1"></path><path fill="none" stroke="#e6e6e6" stroke-width="0" stroke-dasharray="none" data-z-index="1" class="highcharts-grid-line" d="M 498.5 61 L 498.5 331" opacity="1"></path><path fill="none" stroke="#e6e6e6" stroke-width="0" stroke-dasharray="none" data-z-index="1" class="highcharts-grid-line" d="M 520.5 61 L 520.5 331" opacity="1"></path><path fill="none" stroke="#e6e6e6" stroke-width="0" stroke-dasharray="none" data-z-index="1" class="highcharts-grid-line" d="M 541.5 61 L 541.5 331" opacity="1"></path><path fill="none" stroke="#e6e6e6" stroke-width="0" stroke-dasharray="none" data-z-index="1" class="highcharts-grid-line" d="M 562.5 61 L 562.5 331" opacity="1"></path><path fill="none" stroke="#e6e6e6" stroke-width="0" stroke-dasharray="none" data-z-index="1" class="highcharts-grid-line" d="M 584.5 61 L 584.5 331" opacity="1"></path></g><g class="highcharts-grid highcharts-yaxis-grid" data-z-index="1"><path fill="none" stroke="#e6e6e6" stroke-width="1" stroke-dasharray="none" data-z-index="1" class="highcharts-grid-line" d="M 50 331.5 L 590 331.5" opacity="1"></path><path fill="none" stroke="#e6e6e6" stroke-width="1" stroke-dasharray="none" data-z-index="1" class="highcharts-grid-line" d="M 50 286.5 L 590 286.5" opacity="1"></path><path fill="none" stroke="#e6e6e6" stroke-width="1" stroke-dasharray="none" data-z-index="1" class="highcharts-grid-line" d="M 50 241.5 L 590 241.5" opacity="1"></path><path fill="none" stroke="#e6e6e6" stroke-width="1" stroke-dasharray="none" data-z-index="1" class="highcharts-grid-line" d="M 50 196.5 L 590 196.5" opacity="1"></path><path fill="none" stroke="#e6e6e6" stroke-width="1" stroke-dasharray="none" data-z-index="1" class="highcharts-grid-line" d="M 50 151.5 L 590 151.5" opacity="1"></path><path fill="none" stroke="#e6e6e6" stroke-width="1" stroke-dasharray="none" data-z-index="1" class="highcharts-grid-line" d="M 50 106.5 L 590 106.5" opacity="1"></path><path fill="none" stroke="#e6e6e6" stroke-width="1" stroke-dasharray="none" data-z-index="1" class="highcharts-grid-line" d="M 50 60.5 L 590 60.5" opacity="1"></path></g><rect fill="none" class="highcharts-plot-border" data-z-index="1" stroke="#cccccc" stroke-width="0" x="50" y="61" width="540" height="270"></rect><g class="highcharts-axis highcharts-xaxis" data-z-index="2"><path fill="none" class="highcharts-tick" stroke="#333333" stroke-width="1" d="M 70.5 331 L 70.5 341" opacity="1"></path><path fill="none" class="highcharts-tick" stroke="#333333" stroke-width="1" d="M 92.5 331 L 92.5 341" opacity="1"></path><path fill="none" class="highcharts-tick" stroke="#333333" stroke-width="1" d="M 113.5 331 L 113.5 341" opacity="1"></path><path fill="none" class="highcharts-tick" stroke="#333333" stroke-width="1" d="M 135.5 331 L 135.5 341" opacity="1"></path><path fill="none" class="highcharts-tick" stroke="#333333" stroke-width="1" d="M 156.5 331 L 156.5 341" opacity="1"></path><path fill="none" class="highcharts-tick" stroke="#333333" stroke-width="1" d="M 177.5 331 L 177.5 341" opacity="1"></path><path fill="none" class="highcharts-tick" stroke="#333333" stroke-width="1" d="M 199.5 331 L 199.5 341" opacity="1"></path><path fill="none" class="highcharts-tick" stroke="#333333" stroke-width="1" d="M 220.5 331 L 220.5 341" opacity="1"></path><path fill="none" class="highcharts-tick" stroke="#333333" stroke-width="1" d="M 241.5 331 L 241.5 341" opacity="1"></path><path fill="none" class="highcharts-tick" stroke="#333333" stroke-width="1" d="M 263.5 331 L 263.5 341" opacity="1"></path><path fill="none" class="highcharts-tick" stroke="#333333" stroke-width="1" d="M 284.5 331 L 284.5 341" opacity="1"></path><path fill="none" class="highcharts-tick" stroke="#333333" stroke-width="1" d="M 306.5 331 L 306.5 341" opacity="1"></path><path fill="none" class="highcharts-tick" stroke="#333333" stroke-width="1" d="M 327.5 331 L 327.5 341" opacity="1"></path><path fill="none" class="highcharts-tick" stroke="#333333" stroke-width="1" d="M 348.5 331 L 348.5 341" opacity="1"></path><path fill="none" class="highcharts-tick" stroke="#333333" stroke-width="1" d="M 370.5 331 L 370.5 341" opacity="1"></path><path fill="none" class="highcharts-tick" stroke="#333333" stroke-width="1" d="M 391.5 331 L 391.5 341" opacity="1"></path><path fill="none" class="highcharts-tick" stroke="#333333" stroke-width="1" d="M 413.5 331 L 413.5 341" opacity="1"></path><path fill="none" class="highcharts-tick" stroke="#333333" stroke-width="1" d="M 434.5 331 L 434.5 341" opacity="1"></path><path fill="none" class="highcharts-tick" stroke="#333333" stroke-width="1" d="M 455.5 331 L 455.5 341" opacity="1"></path><path fill="none" class="highcharts-tick" stroke="#333333" stroke-width="1" d="M 477.5 331 L 477.5 341" opacity="1"></path><path fill="none" class="highcharts-tick" stroke="#333333" stroke-width="1" d="M 498.5 331 L 498.5 341" opacity="1"></path><path fill="none" class="highcharts-tick" stroke="#333333" stroke-width="1" d="M 520.5 331 L 520.5 341" opacity="1"></path><path fill="none" class="highcharts-tick" stroke="#333333" stroke-width="1" d="M 541.5 331 L 541.5 341" opacity="1"></path><path fill="none" class="highcharts-tick" stroke="#333333" stroke-width="1" d="M 562.5 331 L 562.5 341" opacity="1"></path><path fill="none" class="highcharts-tick" stroke="#333333" stroke-width="1" d="M 584.5 331 L 584.5 341" opacity="1"></path><text x="320" data-z-index="7" text-anchor="middle" transform="translate(0,0)" class="highcharts-axis-title" style="color: rgb(102, 102, 102); font-size: 0.8em; fill: rgb(102, 102, 102);" y="390.0355484658786">Residual Maturity</text><path fill="none" class="highcharts-axis-line" stroke="#333333" stroke-width="1" data-z-index="7" d="M 50 331.5 L 590 331.5"></path></g><g class="highcharts-axis highcharts-yaxis" data-z-index="2"><path fill="none" class="highcharts-axis-line" stroke="#333333" stroke-width="0" data-z-index="7" d="M 50 61 L 50 331"></path></g><g class="highcharts-series-group" data-z-index="3" filter="none"><g class="highcharts-series highcharts-series-0 highcharts-line-series highcharts-color-0" data-z-index="0.1" opacity="1" transform="translate(50,61) scale(1 1)" clip-path="url(#highcharts-9ygbx35-89-)"><path fill="none" d="M 5.2941176470588 108.315 L 10.641711229947 106.4025 L 21.336898395722 102.6225 L 42.727272727273 144.3825 L 64.117647058824 60.77250000000001 L 85.508021390374 36.13499999999999 L 106.89839572193 34.89750000000001 L 128.28877005348 33.84 L 149.67914438503 90.02250000000001 L 171.06951871658 81 L 192.45989304813 74.61000000000001 L 213.85026737968 71.2125 L 320.80213903743 69.05250000000001 L 427.75401069519 67.20750000000001 L 534.70588235294 66.24000000000001" class="highcharts-graph" data-z-index="1" stroke="#0000FF" stroke-width="3" stroke-dasharray="none" filter="none"></path></g><g class="highcharts-markers highcharts-series-0 highcharts-line-series highcharts-color-0" data-z-index="0.1" opacity="1" transform="translate(50,61) scale(1 1)" clip-path="none"></g><g class="highcharts-series highcharts-series-1 highcharts-line-series highcharts-color-1" data-z-index="0.1" opacity="1" transform="translate(50,61) scale(1 1)" clip-path="url(#highcharts-9ygbx35-89-)"><path fill="none" d="M 5.2941176470588 116.5275 L 10.641711229947 113.625 L 21.336898395722 111.285 L 42.727272727273 146.0925 L 64.117647058824 64.62 L 85.508021390374 39.35249999999999 L 106.89839572193 35.662499999999994 L 128.28877005348 33.254999999999995 L 149.67914438503 90.29249999999999 L 171.06951871658 81.4725 L 192.45989304813 75.3075 L 213.85026737968 72.02250000000001 L 320.80213903743 72.2475 L 427.75401069519 71.39250000000001 L 534.70588235294 70.155" class="highcharts-graph" data-z-index="1" stroke="#327F24" stroke-width="2" stroke-dasharray="2,2" filter="none"></path></g><g class="highcharts-markers highcharts-series-1 highcharts-line-series highcharts-color-1" data-z-index="0.1" opacity="1" transform="translate(50,61) scale(1 1)" clip-path="none"></g><g class="highcharts-series highcharts-series-2 highcharts-line-series highcharts-color-2" data-z-index="0.1" opacity="1" transform="translate(50,61) scale(1 1)" clip-path="url(#highcharts-9ygbx35-89-)"><path fill="none" d="M 5.2941176470588 218.8125 L 10.641711229947 213.5025 L 21.336898395722 199.70999999999998 L 42.727272727273 188.325 L 64.117647058824 139.86 L 85.508021390374 132.5025 L 106.89839572193 128.9475 L 128.28877005348 126.9 L 149.67914438503 122.31 L 171.06951871658 119.8125 L 192.45989304813 118.0575 L 213.85026737968 117 L 320.80213903743 115.35749999999999 L 427.75401069519 115.0875 L 534.70588235294 115.785" class="highcharts-graph" data-z-index="1" stroke="#ff9933" stroke-width="2" stroke-dasharray="2,2" filter="none"></path></g><g class="highcharts-markers highcharts-series-2 highcharts-line-series highcharts-color-2" data-z-index="0.1" opacity="1" transform="translate(50,61) scale(1 1)" clip-path="none"></g></g><text x="300" text-anchor="middle" class="highcharts-title" data-z-index="4" style="font-size: 1.2em; color: rgb(51, 51, 51); font-weight: bold; fill: rgb(51, 51, 51);" y="25">Kenya Yield Curve - 3 Nov 2023</text><text x="300" text-anchor="middle" class="highcharts-subtitle" data-z-index="4" style="color: rgb(102, 102, 102); font-size: 0.8em; fill: rgb(102, 102, 102);" y="45">Kenya Government Bonds</text><text x="10" text-anchor="start" class="highcharts-caption" data-z-index="4" style="color: rgb(102, 102, 102); font-size: 0.8em; fill: rgb(102, 102, 102);" y="447"></text><g class="highcharts-legend highcharts-no-tooltip" data-z-index="7" transform="translate(141,405)"><rect fill="none" class="highcharts-legend-box" rx="0" ry="0" stroke="#999999" stroke-width="0" filter="none" x="0" y="0" width="318" height="30"></rect><g data-z-index="1"><g><g class="highcharts-legend-item highcharts-line-series highcharts-color-0 highcharts-series-0" data-z-index="1" transform="translate(8,3)"><path fill="none" class="highcharts-graph" stroke-width="3" stroke-dasharray="none" d="M 0 13 L 16 13" stroke="#0000FF"></path><text x="21" text-anchor="start" data-z-index="2" style="color: rgb(51, 51, 51); cursor: pointer; font-size: 0.8em; text-decoration: none; fill: rgb(51, 51, 51);" y="17">Kenya (3 Nov 2023)</text></g><g class="highcharts-legend-item highcharts-line-series highcharts-color-1 highcharts-series-1" data-z-index="1" transform="translate(162.828125,3)"><path fill="none" class="highcharts-graph" stroke-width="2" stroke-dasharray="2,2" d="M 0 13 L 16 13" stroke="#327F24"></path><text x="21" y="17" text-anchor="start" data-z-index="2" style="color: rgb(51, 51, 51); cursor: pointer; font-size: 0.8em; text-decoration: none; fill: rgb(51, 51, 51);">1M ago</text></g><g class="highcharts-legend-item highcharts-line-series highcharts-color-2 highcharts-series-2" data-z-index="1" transform="translate(246.515625,3)"><path fill="none" class="highcharts-graph" stroke-width="2" stroke-dasharray="2,2" d="M 0 13 L 16 13" stroke="#ff9933"></path><text x="21" y="17" text-anchor="start" data-z-index="2" style="color: rgb(51, 51, 51); cursor: pointer; font-size: 0.8em; text-decoration: none; fill: rgb(51, 51, 51);">6M ago</text></g></g></g></g><g class="highcharts-axis-labels highcharts-xaxis-labels" data-z-index="7"><text x="74.16532552046819" style="color: rgb(51, 51, 51); cursor: default; font-size: 0.8em; fill: rgb(51, 51, 51);" text-anchor="end" transform="translate(0,0) rotate(-45 74.16532552046819 354)" y="354" opacity="1"></text><text x="95.55569985201919" style="color: rgb(51, 51, 51); cursor: default; font-size: 0.8em; fill: rgb(51, 51, 51);" text-anchor="end" transform="translate(0,0) rotate(-45 95.55569985201919 354)" y="354" opacity="1">2Y</text><text x="116.94607418356618" style="color: rgb(51, 51, 51); cursor: default; font-size: 0.8em; fill: rgb(51, 51, 51);" text-anchor="end" transform="translate(0,0) rotate(-45 116.94607418356618 354)" y="354" opacity="1"></text><text x="138.3364485151162" style="color: rgb(51, 51, 51); cursor: default; font-size: 0.8em; fill: rgb(51, 51, 51);" text-anchor="end" transform="translate(0,0) rotate(-45 138.3364485151162 354)" y="354" opacity="1">4Y</text><text x="159.72682284667619" style="color: rgb(51, 51, 51); cursor: default; font-size: 0.8em; fill: rgb(51, 51, 51);" text-anchor="end" transform="translate(0,0) rotate(-45 159.72682284667619 354)" y="354" opacity="1"></text><text x="181.11719717822618" style="color: rgb(51, 51, 51); cursor: default; font-size: 0.8em; fill: rgb(51, 51, 51);" text-anchor="end" transform="translate(0,0) rotate(-45 181.11719717822618 354)" y="354" opacity="1">6Y</text><text x="202.5075715097762" style="color: rgb(51, 51, 51); cursor: default; font-size: 0.8em; fill: rgb(51, 51, 51);" text-anchor="end" transform="translate(0,0) rotate(-45 202.5075715097762 354)" y="354" opacity="1"></text><text x="223.8979458413262" style="color: rgb(51, 51, 51); cursor: default; font-size: 0.8em; fill: rgb(51, 51, 51);" text-anchor="end" transform="translate(0,0) rotate(-45 223.8979458413262 354)" y="354" opacity="1">8Y</text><text x="245.28832017287618" style="color: rgb(51, 51, 51); cursor: default; font-size: 0.8em; fill: rgb(51, 51, 51);" text-anchor="end" transform="translate(0,0) rotate(-45 245.28832017287618 354)" y="354" opacity="1"></text><text x="266.67869450442623" style="color: rgb(51, 51, 51); cursor: default; font-size: 0.8em; fill: rgb(51, 51, 51);" text-anchor="end" transform="translate(0,0) rotate(-45 266.67869450442623 354)" y="354" opacity="1">10Y</text><text x="288.0690688359762" style="color: rgb(51, 51, 51); cursor: default; font-size: 0.8em; fill: rgb(51, 51, 51);" text-anchor="end" transform="translate(0,0) rotate(-45 288.0690688359762 354)" y="354" opacity="1"></text><text x="309.4594431675262" style="color: rgb(51, 51, 51); cursor: default; font-size: 0.8em; fill: rgb(51, 51, 51);" text-anchor="end" transform="translate(0,0) rotate(-45 309.4594431675262 354)" y="354" opacity="1">12Y</text><text x="330.8498174990762" style="color: rgb(51, 51, 51); cursor: default; font-size: 0.8em; fill: rgb(51, 51, 51);" text-anchor="end" transform="translate(0,0) rotate(-45 330.8498174990762 354)" y="354" opacity="1"></text><text x="352.2401918306262" style="color: rgb(51, 51, 51); cursor: default; font-size: 0.8em; fill: rgb(51, 51, 51);" text-anchor="end" transform="translate(0,0) rotate(-45 352.2401918306262 354)" y="354" opacity="1">14Y</text><text x="373.6305661621762" style="color: rgb(51, 51, 51); cursor: default; font-size: 0.8em; fill: rgb(51, 51, 51);" text-anchor="end" transform="translate(0,0) rotate(-45 373.6305661621762 354)" y="354" opacity="1"></text><text x="395.0209404937262" style="color: rgb(51, 51, 51); cursor: default; font-size: 0.8em; fill: rgb(51, 51, 51);" text-anchor="end" transform="translate(0,0) rotate(-45 395.0209404937262 354)" y="354" opacity="1">16Y</text><text x="416.41131482527624" style="color: rgb(51, 51, 51); cursor: default; font-size: 0.8em; fill: rgb(51, 51, 51);" text-anchor="end" transform="translate(0,0) rotate(-45 416.41131482527624 354)" y="354" opacity="1"></text><text x="437.80168915683623" style="color: rgb(51, 51, 51); cursor: default; font-size: 0.8em; fill: rgb(51, 51, 51);" text-anchor="end" transform="translate(0,0) rotate(-45 437.80168915683623 354)" y="354" opacity="1">18Y</text><text x="459.1920634883862" style="color: rgb(51, 51, 51); cursor: default; font-size: 0.8em; fill: rgb(51, 51, 51);" text-anchor="end" transform="translate(0,0) rotate(-45 459.1920634883862 354)" y="354" opacity="1"></text><text x="480.5824378199362" style="color: rgb(51, 51, 51); cursor: default; font-size: 0.8em; fill: rgb(51, 51, 51);" text-anchor="end" transform="translate(0,0) rotate(-45 480.5824378199362 354)" y="354" opacity="1">20Y</text><text x="501.9728121514862" style="color: rgb(51, 51, 51); cursor: default; font-size: 0.8em; fill: rgb(51, 51, 51);" text-anchor="end" transform="translate(0,0) rotate(-45 501.9728121514862 354)" y="354" opacity="1"></text><text x="523.3631864830362" style="color: rgb(51, 51, 51); cursor: default; font-size: 0.8em; fill: rgb(51, 51, 51);" text-anchor="end" transform="translate(0,0) rotate(-45 523.3631864830362 354)" y="354" opacity="1">22Y</text><text x="544.7535608145862" style="color: rgb(51, 51, 51); cursor: default; font-size: 0.8em; fill: rgb(51, 51, 51);" text-anchor="end" transform="translate(0,0) rotate(-45 544.7535608145862 354)" y="354" opacity="1"></text><text x="566.1439351461362" style="color: rgb(51, 51, 51); cursor: default; font-size: 0.8em; fill: rgb(51, 51, 51);" text-anchor="end" transform="translate(0,0) rotate(-45 566.1439351461362 354)" y="354" opacity="1">24Y</text><text x="587.5343094776862" style="color: rgb(51, 51, 51); cursor: default; font-size: 0.8em; fill: rgb(51, 51, 51);" text-anchor="end" transform="translate(0,0) rotate(-45 587.5343094776862 354)" y="354" opacity="1"></text></g><g class="highcharts-axis-labels highcharts-yaxis-labels" data-z-index="7"><text x="35" style="color: rgb(51, 51, 51); cursor: default; font-size: 0.8em; fill: rgb(51, 51, 51);" text-anchor="end" transform="translate(0,0)" y="336" opacity="1">8%</text><text x="35" style="color: rgb(51, 51, 51); cursor: default; font-size: 0.8em; fill: rgb(51, 51, 51);" text-anchor="end" transform="translate(0,0)" y="291" opacity="1">10%</text><text x="35" style="color: rgb(51, 51, 51); cursor: default; font-size: 0.8em; fill: rgb(51, 51, 51);" text-anchor="end" transform="translate(0,0)" y="246" opacity="1">12%</text><text x="35" style="color: rgb(51, 51, 51); cursor: default; font-size: 0.8em; fill: rgb(51, 51, 51);" text-anchor="end" transform="translate(0,0)" y="201" opacity="1">14%</text><text x="35" style="color: rgb(51, 51, 51); cursor: default; font-size: 0.8em; fill: rgb(51, 51, 51);" text-anchor="end" transform="translate(0,0)" y="156" opacity="1">16%</text><text x="35" style="color: rgb(51, 51, 51); cursor: default; font-size: 0.8em; fill: rgb(51, 51, 51);" text-anchor="end" transform="translate(0,0)" y="111" opacity="1">18%</text><text x="35" style="color: rgb(51, 51, 51); cursor: default; font-size: 0.8em; fill: rgb(51, 51, 51);" text-anchor="end" transform="translate(0,0)" y="66" opacity="1">20%</text></g><text x="590" class="highcharts-credits" text-anchor="end" data-z-index="8" y="445" style="cursor: pointer; color: rgb(153, 153, 153); font-size: 0.6em; fill: rgb(153, 153, 153);">Highcharts.com</text></svg>